# xmcd
#
# Track frame offsets:
#	150
#	26260
#	44660
#	66896
#	103097
#	124993
#	144829
#
# Disc length: 2164 seconds
#
# Revision: 0
# Processed by: cddbd v1.5.2PL0 Copyright (c) Steve Scherf et al.
# Submitted via: dBpowerAMP V4.0
#
DISCID=5f087207
DTITLE=Band of Annuals - Live Warehouse EP
DYEAR=2006
DGENRE=Country
TTITLE0=Thought I'd Have Learned
TTITLE1=David's Country
TTITLE2=Something True
TTITLE3=She's Not Angry
TTITLE4=The Ballad of Casey Jones
TTITLE5=Lower
TTITLE6=Blood On My Shirt
EXTD=
EXTT0=
EXTT1=
EXTT2=
EXTT3=
EXTT4=
EXTT5=
EXTT6=
PLAYORDER=
